<svg width="32" height="32" viewBox="0 0 32 32" fill="none" xmlns="http://www.w3.org/2000/svg">
<path d="M28.375 16.855V16V15.1338L30.535 13.2438C30.9332 12.8928 31.1945 12.4124 31.2727 11.8875C31.3509 11.3625 31.2411 10.8268 30.9625 10.375L28.3075 5.87503C28.1102 5.53333 27.8266 5.24951 27.485 5.05205C27.1434 4.85459 26.7558 4.75044 26.3613 4.75003C26.1168 4.74816 25.8736 4.78616 25.6413 4.86253L22.9075 5.78503C22.4355 5.47139 21.9432 5.18952 21.4338 4.94128L20.86 2.10628C20.7572 1.58834 20.4754 1.12308 20.064 0.791945C19.6527 0.460815 19.138 0.284912 18.61 0.29503H13.345C12.8171 0.284912 12.3024 0.460815 11.891 0.791945C11.4797 1.12308 11.1979 1.58834 11.095 2.10628L10.5213 4.94128C10.0082 5.18946 9.51213 5.47132 9.03629 5.78503L6.35879 4.81753C6.124 4.75636 5.88086 4.73356 5.63879 4.75003C5.24422 4.75044 4.8567 4.85459 4.5151 5.05205C4.17349 5.24951 3.88982 5.53333 3.69254 5.87503L1.03754 10.375C0.77495 10.8261 0.677373 11.3545 0.76152 11.8697C0.845668 12.3848 1.1063 12.8547 1.49879 13.1988L3.62504 15.145V16.8663L1.49879 18.7563C1.09522 19.1028 0.827452 19.5811 0.743013 20.1062C0.658575 20.6314 0.762923 21.1695 1.03754 21.625L3.69254 26.125C3.88982 26.4667 4.17349 26.7506 4.5151 26.948C4.8567 27.1455 5.24422 27.2496 5.63879 27.25C5.88331 27.2519 6.1265 27.2139 6.35879 27.1375L9.09254 26.215C9.56452 26.5287 10.0569 26.8105 10.5663 27.0588L11.14 29.8938C11.2429 30.4117 11.5247 30.877 11.936 31.2081C12.3474 31.5392 12.8621 31.7151 13.39 31.705H18.7C19.228 31.7151 19.7427 31.5392 20.154 31.2081C20.5654 30.877 20.8472 30.4117 20.95 29.8938L21.5238 27.0588C22.0369 26.8106 22.5329 26.5287 23.0088 26.215L25.7313 27.1375C25.9636 27.2139 26.2068 27.2519 26.4513 27.25C26.8458 27.2496 27.2334 27.1455 27.575 26.948C27.9166 26.7506 28.2002 26.4667 28.3975 26.125L30.9625 21.625C31.2251 21.1739 31.3227 20.6455 31.2385 20.1304C31.1544 19.6153 30.8938 19.1454 30.5013 18.8013L28.375 16.855ZM26.3613 25L22.5025 23.695C21.5992 24.4602 20.5669 25.0582 19.4538 25.4613L18.655 29.5H13.345L12.5463 25.5063C11.442 25.0918 10.4152 24.4947 9.50879 23.74L5.63879 25L2.98379 20.5L6.04379 17.8C5.83577 16.6355 5.83577 15.4433 6.04379 14.2788L2.98379 11.5L5.63879 7.00003L9.49754 8.30503C10.4008 7.53991 11.4332 6.94182 12.5463 6.53878L13.345 2.50003H18.655L19.4538 6.49378C20.5581 6.90826 21.5849 7.50532 22.4913 8.26003L26.3613 7.00003L29.0163 11.5L25.9563 14.2C26.1643 15.3646 26.1643 16.5567 25.9563 17.7213L29.0163 20.5L26.3613 25Z" fill="white"/>
<path d="M16 22.75C14.665 22.75 13.3599 22.3541 12.2499 21.6124C11.1399 20.8707 10.2747 19.8165 9.76382 18.5831C9.25292 17.3497 9.11925 15.9925 9.3797 14.6831C9.64015 13.3738 10.283 12.171 11.227 11.227C12.171 10.283 13.3738 9.64015 14.6831 9.3797C15.9925 9.11925 17.3497 9.25292 18.5831 9.76382C19.8165 10.2747 20.8707 11.1399 21.6124 12.2499C22.3541 13.3599 22.75 14.665 22.75 16C22.759 16.8889 22.5906 17.7707 22.2546 18.5938C21.9186 19.4168 21.4217 20.1645 20.7931 20.7931C20.1645 21.4217 19.4168 21.9186 18.5938 22.2546C17.7707 22.5906 16.8889 22.759 16 22.75V22.75ZM16 11.5C15.4053 11.4861 14.8139 11.5931 14.2617 11.8143C13.7094 12.0356 13.2078 12.3665 12.7872 12.7872C12.3665 13.2078 12.0356 13.7094 11.8143 14.2617C11.5931 14.8139 11.4861 15.4053 11.5 16C11.4861 16.5947 11.5931 17.1861 11.8143 17.7383C12.0356 18.2906 12.3665 18.7922 12.7872 19.2128C13.2078 19.6335 13.7094 19.9644 14.2617 20.1857C14.8139 20.4069 15.4053 20.5139 16 20.5C16.5947 20.5139 17.1861 20.4069 17.7383 20.1857C18.2906 19.9644 18.7922 19.6335 19.2128 19.2128C19.6335 18.7922 19.9644 18.2906 20.1857 17.7383C20.4069 17.1861 20.5139 16.5947 20.5 16C20.5139 15.4053 20.4069 14.8139 20.1857 14.2617C19.9644 13.7094 19.6335 13.2078 19.2128 12.7872C18.7922 12.3665 18.2906 12.0356 17.7383 11.8143C17.1861 11.5931 16.5947 11.4861 16 11.5Z" fill="white"/>
</svg>
